<?xml version="1.0" encoding="UTF-8"?>
<svg version="1.1" xmlns="http://www.w3.org/2000/svg" width="512" height="512">
<path d="M0 0 C2.28767437 -0.00135166 4.57534845 -0.00329633 6.86302185 -0.00579834 C11.62737803 -0.00872546 16.39165856 -0.00452998 21.15600586 0.00488281 C27.21625821 0.0162823 33.27633343 0.00969913 39.33657932 -0.00226212 C44.05105386 -0.00954075 48.76548743 -0.00716553 53.4799633 -0.00200653 C55.71273762 -0.00068692 57.94551585 -0.0022574 60.1782856 -0.00696564 C94.43673155 -0.06338737 94.43673155 -0.06338737 106.87109375 5.265625 C108.37998844 8.28341437 108.37135651 9.88885137 107.87109375 13.265625 C105.84928741 16.21911012 103.36254354 18.70535064 100.87109375 21.265625 C78.37184267 44.70404627 66.07364027 76.31197786 66.66015625 108.828125 C67.65288326 136.33033992 78.49189907 160.27596476 95.6015625 181.40234375 C97.47620985 184.15374924 97.34466337 186.01829046 96.87109375 189.265625 C94.68879402 192.17513963 93.50249769 193.16002895 89.87796402 193.76619625 C88.70041424 193.76640553 87.52286446 193.76661482 86.30963135 193.76683044 C85.65188367 193.77236484 84.99413599 193.77789924 84.31645656 193.78360134 C82.1132554 193.7972096 79.91118691 193.78223835 77.70800781 193.76733398 C76.12748229 193.77111757 74.54696008 193.77661794 72.96644592 193.78370667 C68.67015043 193.7976872 64.37425439 193.7864673 60.077981 193.76999545 C55.57043719 193.75613296 51.06291633 193.7626075 46.55535889 193.76612854 C38.97255034 193.76883305 31.38989982 193.75534585 23.80712891 193.73217773 C15.07541554 193.7056815 6.34396832 193.70378326 -2.38777137 193.7155661 C-10.81220087 193.72640706 -19.23653532 193.72010016 -27.66095734 193.70601082 C-31.23151176 193.70029386 -34.80199563 193.70029986 -38.37255096 193.70507622 C-42.59812082 193.70990467 -46.82340575 193.69950586 -51.04892159 193.67812157 C-52.58702445 193.67262809 -54.12515514 193.67201843 -55.66325951 193.67707443 C-74.28366536 193.73053156 -92.99009152 190.97297506 -108.12890625 179.265625 C-108.81597656 178.74226562 -109.50304687 178.21890625 -110.2109375 177.6796875 C-123.76296286 166.6411353 -130.25473059 149.28380936 -132.12890625 132.265625 C-133.67662876 98.08075399 -128.01374057 63.45414902 -104.62890625 37.015625 C-103.13551879 35.42605326 -101.63588298 33.84231951 -100.12890625 32.265625 C-99.52820313 31.59015625 -98.9275 30.9146875 -98.30859375 30.21875 C-86.02399422 16.92372887 -68.93116431 9.18342852 -51.75390625 4.453125 C-50.71411621 4.1605481 -50.71411621 4.1605481 -49.65332031 3.86206055 C-33.45771463 -0.26326957 -16.58284367 -0.03500514 0 0 Z " fill="#396BE8" transform="translate(185.12890625,265.734375)"/>
<path d="M0 0 C0.92425781 0.44214844 1.84851563 0.88429688 2.80078125 1.33984375 C23.26290117 11.78797004 37.65900558 30.01710229 45.02734375 51.48828125 C51.50736973 74.8840377 49.18292915 99.49718387 37.44140625 120.83203125 C33.3539453 127.58153374 28.52543827 133.38338288 23 139 C22.23945313 139.7734375 21.47890625 140.546875 20.6953125 141.34375 C2.5829277 158.68413151 -19.97257995 163.68623863 -44.3046875 163.3046875 C-66.92307563 162.54170312 -86.85176493 151.10377127 -102.36328125 135.0390625 C-110.71935761 125.701537 -116.02844818 114.78736213 -120 103 C-120.3403125 102.01257813 -120.680625 101.02515625 -121.03125 100.0078125 C-126.78341704 79.92848866 -123.79013967 56.2877609 -114 38 C-113.52046875 37.04996094 -113.0409375 36.09992188 -112.546875 35.12109375 C-101.90889499 15.31689311 -83.7244801 2.09081421 -62.71484375 -5.12890625 C-42.07947276 -11.00445205 -19.27810861 -9.33326362 0 0 Z " fill="#386BE8" transform="translate(251,61)"/>
<path d="M0 0 C1.05832031 0.36222656 2.11664063 0.72445313 3.20703125 1.09765625 C15.10173554 5.6020693 24.99150105 13.14418748 34 22 C35.04800781 23.02867187 35.04800781 23.02867187 36.1171875 24.078125 C44.85511026 33.25804385 50.83304879 45.11471871 55 57 C55.3196875 57.89847656 55.639375 58.79695313 55.96875 59.72265625 C62.51707978 82.24769803 58.06142648 106.07836527 47.70703125 126.48828125 C45.82561244 130.12839816 45.82561244 130.12839816 45 134 C46.34329126 136.05929951 46.34329126 136.05929951 48.43481445 137.97070312 C49.20924393 138.73829956 49.9836734 139.505896 50.78157043 140.29675293 C52.05951729 141.52657898 52.05951729 141.52657898 53.36328125 142.78125 C54.65675728 144.0569989 54.65675728 144.0569989 55.97636414 145.35852051 C58.74356045 148.08437386 61.52696464 150.79290002 64.3125 153.5 C67.08473097 156.20956947 69.85334934 158.92265128 72.61650085 161.64147949 C74.33899274 163.33472868 76.06720218 165.02218487 77.80158997 166.70324707 C78.58547592 167.47084351 79.36936188 168.23843994 80.17700195 169.02929688 C81.21411064 170.03712219 81.21411064 170.03712219 82.27217102 171.06530762 C86.44465087 175.7373354 86.42382388 180.01182843 86.3203125 186.08203125 C85.77911343 191.0122228 83.55327508 193.63500068 79.9375 196.8125 C76.54691044 198.89060328 73.5841536 199.21009831 69.6875 199.3125 C68.30111328 199.36857422 68.30111328 199.36857422 66.88671875 199.42578125 C59.49667045 198.33577413 54.39450469 191.58158505 49.4609375 186.48046875 C47.81292263 184.80231923 46.16447228 183.12459728 44.515625 181.44726562 C41.93190026 178.80753386 39.35228586 176.16408699 36.78027344 173.51293945 C34.28896805 170.9494326 31.78252368 168.40155759 29.2734375 165.85546875 C28.50357513 165.05352585 27.73371277 164.25158295 26.94052124 163.42533875 C26.21942169 162.69740616 25.49832214 161.96947357 24.75537109 161.21948242 C23.80988907 160.2482972 23.80988907 160.2482972 22.8453064 159.25749207 C21.09168184 157.77468726 21.09168184 157.77468726 18.98477173 158.1920929 C16.41310621 159.23889682 13.94582364 160.47493811 11.47070312 161.73046875 C-8.96996414 171.97854989 -32.79298969 174.95400522 -55.01171875 168.38671875 C-79.93448107 160.10383789 -97.45052297 143.91488425 -109.8125 121 C-118.90897488 102.02015794 -120.27151779 77.42553084 -114.19140625 57.36328125 C-113.79824219 56.25339844 -113.40507812 55.14351563 -113 54 C-112.63777344 52.94167969 -112.27554687 51.88335937 -111.90234375 50.79296875 C-104.17248401 30.38089844 -86.8950179 12.1156943 -67.01464844 3.09960938 C-46.00775344 -5.75065642 -21.71114423 -7.69093959 0 0 Z M-71 48 C-80.12492332 60.14316719 -85.5208682 73.65655757 -84 89 C-81.34461806 104.59838135 -75.09498091 118.28729147 -62 128 C-47.70135318 136.96488235 -33.01737383 140.29072859 -16.29296875 137.34765625 C-1.32715594 133.13116969 10.52692226 124.55659011 18.375 111.125 C25.63966264 97.89067981 27.75177362 82.51616135 23.56054688 67.82861328 C20.46163275 58.42258317 15.34250626 50.62616418 8 44 C7.43925781 43.44699219 6.87851562 42.89398438 6.30078125 42.32421875 C-3.15125264 33.37066941 -16.01024892 29.01621944 -28.9375 28.625 C-45.34995085 29.15925947 -59.94610898 35.77844444 -71 48 Z " fill="#386BE8" transform="translate(399,286)"/>
</svg>
